<svg xmlns="http://www.w3.org/2000/svg" xml:space="preserve" width="728mm" height="1030mm" version="1.1" style="shape-rendering:geometricPrecision; text-rendering:geometricPrecision; image-rendering:optimizeQuality; fill-rule:evenodd; clip-rule:evenodd"
viewBox="0 0 72800 103000"
 xmlns:xlink="http://www.w3.org/1999/xlink">
 <defs>
  <style type="text/css">
   <![CDATA[
    .str0 {stroke:black;stroke-width:7.62}
    .str1 {stroke:black;stroke-width:100;stroke-linecap:round}
    .fil1 {fill:black}
    .fil0 {fill:black;fill-rule:nonzero}
   ]]>
  </style>
 </defs>
 <g id="Warstwa_x0020_1">
  <metadata id="CorelCorpID_0Corel-Layer"/>
  <path class="fil0 str0" d="M25332 50532l-1521 815c183,346 329,707 775,674 351,-27 872,-331 968,-646 78,-257 -65,-548 -222,-843zm-202 -612c330,729 1176,1762 127,2324 -1034,554 -1420,-713 -1839,-1406l93 -50c99,186 133,213 318,114l1123 -602c186,-100 179,-141 83,-329l95 -51zm1251 2812l-742 232 353 437 389 -669zm370 -236l102 125 -895 1630c-64,116 -50,166 34,270l-82 67c-206,-279 -311,-410 -541,-671l82 -66c243,286 374,-156 485,-347l-403 -500c-469,149 -625,146 -462,377l-82 66c-112,-159 -218,-290 -351,-434l82 -67c86,107 130,123 262,83l1769 -533zm483 772c236,224 369,311 638,538l-70 83c-157,-126 -203,-98 -264,65l-450 1191 1018 -574c107,-89 101,-335 -22,-445l69 -83c249,223 382,323 648,547l-69 83c-166,-128 -213,-116 -277,54l-451 1179c918,-524 1420,-637 1094,-924l69 -83c162,153 269,245 447,376l-69 84c-94,-65 -144,-93 -236,-42 -566,314 -1053,591 -1642,894l-100 -110 478 -1358c-432,238 -845,476 -1288,700l-103 -111 589 -1698c50,-146 33,-188 -79,-283l70 -83zm2464 1996c211,134 358,215 584,325l337 1818c492,-894 753,-1088 385,-1292l52 -96c215,137 357,214 587,327l-52 95c-206,-108 -241,-94 -360,123 -251,456 -510,941 -768,1373l-128 -90 -405 -2161 -627 1140c-129,233 -110,265 112,389l-52 91c-230,-146 -348,-209 -596,-331l51 -93c212,116 252,105 374,-118 589,-1070 819,-1201 453,-1405l53 -95zm3768 1629l-124 505 -95 -30c101,-526 -421,-557 -819,-685l-228 720c377,120 465,204 596,-126l94 32c-104,289 -137,429 -233,733l-95 -30c106,-407 -47,-392 -396,-503l-262 825c457,146 957,476 1202,-96l95 30 -212 528 -1719 -551 32 -101c200,64 243,59 307,-141l387 -1220c64,-202 29,-225 -170,-293l33 -103 1607 506zm329 128c246,41 413,59 663,72l1012 1545c109,-1014 275,-1295 -143,-1341l11 -108c251,42 412,58 667,73l-11 108c-232,-19 -258,7 -285,253 -56,518 -108,1066 -179,1565l-153 -33 -1206 -1836 -139 1296c-29,265 0,287 253,315l-12 105c-269,-46 -402,-58 -678,-74l12 -105c240,24 272,-2 299,-255 131,-1216 293,-1427 -123,-1472l12 -108zm2499 236c445,-7 432,0 899,-40l6 109c-216,9 -260,23 -250,239l56 1278c9,221 52,226 270,217l4 106c-360,0 -540,8 -900,39l-4 -106c217,-9 258,-23 248,-239l-56 -1278c-9,-218 -51,-226 -268,-217l-5 -108zm3002 -310l108 508 -99 15c-138,-518 -621,-315 -1034,-255l108 747c392,-57 507,-21 481,-375l98 -13c33,306 65,447 111,762l-98 15c-83,-413 -214,-332 -576,-279l125 858c474,-70 1067,6 1038,-616l98 -14 40 567 -1786 262 -15 -105c208,-30 244,-54 214,-262l-183 -1267c-31,-209 -72,-215 -280,-189l-16 -107 1666 -252zm1022 -206l581 1631c368,-132 744,-224 776,-673 25,-353 -198,-915 -494,-1056 -242,-115 -549,-15 -863,98zm-631 111c766,-221 1905,-913 2306,213 394,1109 -909,1308 -1652,1624l-36 -100c198,-71 229,-101 159,-300l-96 -268 -333 -936c-71,-200 -113,-198 -312,-130l-36 -103zm3025 -837l85 776 494 -265 -579 -511zm-160 -410l142 -76 1421 1194c101,85 153,80 270,18l50 93c-312,150 -459,229 -758,406l-50 -93c327,-186 -81,-399 -246,-546l-565 303c56,491 23,644 280,527l49 94c-177,80 -325,159 -491,263l-50 -93c121,-65 145,-104 131,-243l-183 -1847zm771 -287c255,-203 359,-322 621,-558l72 81c-147,139 -126,188 26,272l1109 618 -420 -1095c-73,-119 -316,-148 -441,-41l-72 -81c254,-216 372,-334 631,-567l72 81c-150,147 -145,196 13,283l1097 617c-385,-987 -425,-1503 -754,-1220l-72 -81c174,-139 280,-232 435,-390l72 81c-77,83 -112,129 -74,228 227,608 431,1132 645,1761l-122 84 -1270 -669c174,463 349,908 506,1381l-124 86 -1588 -828c-137,-70 -180,-60 -290,38l-72 -81zm2350 -2140c162,-190 264,-326 404,-534l1839 -73c-809,-618 -963,-906 -1217,-569l-86 -66c165,-194 262,-324 406,-537l86 66c-136,190 -127,226 69,376 413,315 853,643 1241,961l-107 115 -2186 91 1032 789c211,161 245,147 399,-56l83 65c-178,208 -257,316 -413,545l-84 -64c145,-195 140,-236 -62,-389 -968,-741 -1065,-989 -1318,-654l-86 -66zm2189 -3495l478 198 -44 90c-502,-178 -610,337 -794,713l674 333c175,-357 270,-432 -35,-610l45 -89c269,146 402,199 687,339l-44 90c-384,-165 -392,-10 -553,319l774 382c211,-432 608,-881 82,-1208l44 -90 488 288 -796 1628 -94 -47c92,-189 94,-233 -94,-325l-1143 -565c-190,-93 -218,-63 -313,125l-98 -48 736 -1523z"/>
  <path class="fil1 str1" d="M28379 40978c95,245 556,193 617,-82 6,-103 116,-161 192,-92 36,34 42,68 36,112 244,233 632,348 1023,380 353,30 909,331 1124,612 -521,37 -732,-219 -1419,-209l-33 40c47,211 132,619 77,854 223,-28 440,133 870,-372 44,-54 162,-75 216,-33 78,62 88,157 69,225 -55,116 -138,230 -234,326 20,24 30,56 26,90 -59,320 -381,348 -656,367 -13,369 139,496 223,551 588,379 -109,-78 -360,539 -82,201 -126,439 -159,534 390,363 903,1223 959,1578 -22,65 -47,74 -113,51 -54,-19 -183,-452 -416,-889 -181,-338 -443,-642 -585,-753 -119,-94 -250,-145 -369,-164 10,21 6,45 -14,77 -35,63 60,114 104,131 172,63 408,248 407,494 -3,763 -284,774 -659,655 -272,-29 -475,-53 -663,-45 229,69 402,233 470,598 83,448 346,688 659,697 54,2 100,4 139,6 246,-26 605,-44 694,-52 33,-3 71,-5 112,-7 -398,-108 -620,-310 -777,-327 -48,76 -199,-12 -169,-91 80,-212 583,172 745,240 142,59 312,78 525,99 62,6 789,-67 751,170 -8,49 -83,37 -80,53 138,133 306,352 264,604 -16,67 -25,101 -82,98 -69,-4 -108,-84 -91,-151 49,-856 -1282,-535 -1684,-524 -35,1 -115,-6 -242,6l-44 12c-356,89 -295,336 -130,415 88,42 136,83 162,123 6,-7 12,-23 31,-29 164,-45 482,799 705,881 184,67 -58,269 -302,-170 -151,-272 -297,-550 -416,-655 11,31 14,65 15,103 10,633 -74,1183 146,1569 110,193 275,221 466,296 449,179 817,-29 1308,-176 568,-169 1041,80 1603,-64 403,-102 741,-1059 1004,-1446 41,-56 119,-69 175,-28 56,40 68,118 28,174 -1644,2636 -1361,868 -3285,1685 620,272 1084,644 1608,332 149,-89 1654,-1437 1833,-1680 306,-415 357,-598 616,-694 232,0 166,164 6,164 -43,48 -790,979 -1251,1396 319,-271 1349,-935 1653,-1214 381,-349 502,-1019 584,-1576 57,656 19,1107 -270,1525 239,-132 495,-279 738,-400 560,-278 707,-289 991,-348 511,-105 2049,-206 3357,-139 -20,-299 -76,-897 -12,-1097 -545,186 -2632,134 -3284,-6 -847,-182 -1189,-808 -1050,-1567 15,-68 82,-110 149,-96 68,15 110,82 96,149 -355,1589 1414,1324 2624,1369 1383,52 1665,-284 2606,-836 968,-570 888,-1034 905,-1306 7,-108 -46,-446 -59,-625 -484,-31 -1277,-66 -2075,-192 -434,-68 -957,-96 -1111,-283 -128,-155 -364,-224 -589,-157 -201,61 -194,240 -263,377 -377,752 -1024,757 -2080,711 -997,-44 -1364,4 -1875,-889 -282,-494 -404,-763 -651,-1061 9,68 16,144 17,231 22,989 -777,1556 -615,2569 138,868 1244,900 1674,1292 297,272 109,819 -65,665 -99,-89 64,-235 65,-348 1,-107 -56,-215 -209,-298 -1070,-582 -1510,-518 -1632,-1411 -153,-1128 601,-1563 561,-2490 -54,-1270 -1889,-1614 -2848,-1722 -842,-94 -1735,-64 -2874,-244 0,224 44,420 20,575 451,-119 746,-280 1038,-115 323,182 255,335 693,411 222,39 245,105 203,157 -45,55 -502,-45 -651,-172 -567,-483 -744,-251 -1416,-95 -46,4 -98,26 -130,19l-6 1c6,10 11,20 16,32zm8149 -12422c8891,0 16098,7397 16098,16523 0,9126 -7207,16523 -16098,16523 -8891,0 -16098,-7397 -16098,-16523 0,-9126 7207,-16523 16098,-16523zm-13 306c8742,0 15896,7296 15896,16210 0,8913 -7160,16175 -15903,16175 -8743,0 -15850,-7272 -15850,-16185 0,-8914 7114,-16200 15857,-16200zm-1325 20175c-829,488 -1447,1041 -2144,1560 -372,276 -759,560 -1096,898 -464,467 -795,1015 -901,1673 221,-323 451,-798 1016,-1158 -153,262 -574,869 -650,1244 167,-272 592,-685 789,-810 872,-554 1941,-389 2301,-1286 447,-1114 659,-1383 1465,-2634 -344,303 -713,474 -780,513zm9491 477c-58,551 -268,1872 -283,1945 -144,703 108,671 306,1252 34,101 136,508 -71,528 -23,-142 -52,-261 -84,-361 -194,-617 -501,-557 -426,-1309 68,-683 96,-957 263,-1560 -143,1014 -3175,1628 -3332,2500 2,69 -52,127 -121,129 -69,2 -127,-52 -129,-121 101,-869 2804,-1774 3222,-2249 225,-255 443,-677 403,-1022 -27,8 -58,7 -86,-6 -3,-1 -6,-3 -9,-5 -208,740 -2125,1113 -2823,1479 641,-614 2403,-809 2585,-1520 -857,-108 -1290,-175 -1636,-181 -505,-8 -823,115 -1999,429 -968,258 -2221,729 -3602,1707 -957,677 -1870,1348 -2562,2093 -582,627 -1009,1359 -1154,1672 268,-1348 2056,-2907 3506,-3937 1127,-801 2710,-1446 3757,-1740 1861,-523 1662,-491 3612,-359 228,-345 920,-917 364,-1148 -344,-142 -547,284 -1300,90 -572,-147 -3488,-257 -4718,-184 -663,40 -1396,376 -1912,810 -917,773 -1345,2197 -1838,3063 -176,308 -630,556 -1062,630 -624,107 -1166,471 -1527,749 -656,506 -810,1037 -1153,1721 -68,-1346 -225,-2432 1699,-3922 -658,-11 -809,-314 -1383,-498 -356,76 -1012,-10 -1225,-362 -177,-294 -202,-766 -196,-1309 4,-316 80,-471 -183,-635 -384,-242 -88,-518 -11,-531 -176,-2 -538,-251 -617,-767 -100,-651 -740,-503 -1292,-433 -613,79 -881,-310 -874,-675 6,-256 339,-768 621,-1251 123,-211 237,-403 304,-545 83,-180 118,-343 221,-505 314,-492 858,-705 549,-1490 -179,-453 -591,-781 -92,-866 6,-3 13,-6 21,-9 40,-90 -15,-482 -39,-677 -240,-50 -454,-157 -613,-373 -754,-1023 -1534,-1117 -1940,-2099 -379,-915 -613,-1986 41,-2842 793,-1037 4466,-1684 6023,-2144 2890,-852 3511,-881 6617,-541 2427,267 5566,1080 7383,2799 446,422 1259,1622 1201,2233 -68,733 -2558,2818 -2688,3501 -32,819 218,1836 -143,2436 -155,258 -497,325 -726,299 7,284 9,1133 -41,1264 -98,258 -317,513 -757,760 -472,266 -708,382 -1295,789 48,804 134,1056 151,1236 548,36 995,37 1536,146 705,140 959,-284 1419,-99 772,310 109,998 -135,1352 154,167 295,449 273,663zm-3349 1986c-1136,177 -1898,1371 -2414,2336 358,-1130 1170,-2353 2401,-2586 69,-3 128,50 131,119 4,69 -49,128 -118,131zm-5079 3461c354,-1410 1657,-2637 2812,-3507 -1035,589 -2021,1254 -2897,2083 -604,571 -605,1021 -782,1216 -317,349 -198,-997 -224,-1257 -243,187 -716,1197 -829,1463 -7,69 -68,119 -137,112 -69,-6 -119,-67 -112,-136 61,-171 1008,-2281 1288,-1541 64,169 32,570 19,898 72,-166 148,-341 335,-569 624,-762 2451,-1943 3351,-2421 679,-361 1622,-803 2063,-932 -520,272 -1695,794 -2541,1587 -824,771 -1840,1900 -2097,3029 -6,68 -68,119 -136,112 -69,-7 -119,-68 -113,-137zm-7787 -9034c-114,-24 -545,27 -535,-139 2,-36 20,-69 97,-88 -86,-2 -170,2 -252,13 -62,9 -113,20 -170,39 -1,1 -201,83 -149,-33 125,-272 1131,-50 1286,-19 350,69 949,446 1072,82 348,-1029 -676,-598 -508,-1145 1,0 55,-122 190,-81 97,29 209,68 333,140 33,18 67,43 103,73 13,-167 84,-411 151,-563 71,-159 197,-274 356,-344 -187,-120 -315,-442 -292,-682 9,-94 -81,-66 -75,-166 5,-96 90,-109 206,-107 -42,-39 -92,-96 -118,-174 -74,-6 -132,-9 -237,0 -74,67 -320,98 -433,84 89,-47 175,-81 336,-158 55,-26 44,-220 21,-419 -103,-6 -409,63 -521,265 -180,325 -36,591 -23,802 -122,-146 -186,-382 -185,-573 2,-277 143,-505 450,-617 -198,1 -441,-77 -579,-225 -142,-154 -201,-382 -204,-592 -39,12 -223,11 -285,-29 578,1102 -114,1407 -448,1961 -176,292 -116,373 -514,1066 -144,251 -432,612 -525,909 -142,454 -65,827 643,786 117,-7 695,-59 809,-66zm-2349 -10950c-639,753 -390,1877 -47,2712 307,745 1040,918 1644,1666 210,260 446,475 759,535 2727,529 5026,-425 6728,2676 507,924 944,1015 1676,1031 745,18 1374,124 1760,-264 140,-140 103,-565 300,-717 326,-249 470,-237 700,-233 385,7 575,447 1281,584 504,98 2940,301 3131,-26 306,-521 34,-1455 78,-2272 144,-774 2518,-2779 2650,-3523 86,-490 -609,-1525 -947,-1880 -1636,-1718 -4745,-2576 -7044,-2861 -3608,-448 -3931,-427 -7263,541 -1360,395 -4653,1144 -5406,2031zm9538 9156c-259,206 -261,1067 -112,1358l78 142 -138 -95c-265,-253 -339,-1263 25,-1607 56,-40 134,-28 174,28 41,56 28,134 -27,174zm-579 -233c-180,141 -489,639 -365,1048 69,228 183,300 301,463 -679,-112 -715,-1386 -11,-1749 66,-21 136,16 157,82 21,65 -16,136 -82,156zm-2413 831c-53,493 -108,808 67,1332 -283,-238 -301,-958 -317,-1327 -1,-69 54,-126 123,-127 69,-2 126,53 127,122zm-1771 -270c340,-497 944,-205 784,508 -75,333 14,1584 7,1682 -123,-412 -176,-910 -168,-1431 5,-301 0,-560 -67,-663 -133,-205 -254,-175 -349,-59 -192,233 -125,317 -163,542 -9,52 -18,97 -71,100 -232,13 -43,-576 27,-679zm-1135 -2410c19,-10 40,-19 61,-28 -12,-76 -25,-147 -36,-202 -75,-186 -167,-246 -542,-403 -11,-4 -64,-21 -61,-32 4,-14 82,-6 95,-4 218,36 397,71 548,219 380,-23 584,22 749,66 125,34 309,64 405,87 -83,-122 -253,-246 -371,-291 -311,-119 -424,-22 -1014,-182 -212,-57 -411,-212 -476,-310 -52,71 -152,251 -223,290 0,11 -2,24 -7,40 -4,651 485,678 872,750zm780 1723c3,-1 7,-1 10,-2 -3,1 -7,1 -10,2zm220 -1139c-172,105 -330,122 -512,103 60,112 141,171 220,173 98,2 257,-76 292,-276z"/>
 </g>
</svg>
